<svg width="24" height="24" viewBox="0 0 24 24" fill="none" xmlns="http://www.w3.org/2000/svg">
  <path d="M5.99998 10H8.99998M6.75998 22H17.24C20 22 21.1 20.31 21.23 18.25L21.75 9.99C21.81 9.06 21.52 8.19 21.01 7.51M18 6C17.39 6 16.83 5.65 16.55 5.11L15.83 3.66C15.37 2.75 14.17 2 13.15 2H10.86C9.82998 2 8.62998 2.75 8.16998 3.66L7.44998 5.11C7.16998 5.65 6.60998 6 5.99998 6C3.82998 6 2.10998 7.83 2.24998 9.99L2.76998 18.25C2.81998 19.07 3.02998 19.84 3.43998 20.46" stroke="black" stroke-width="1.5" stroke-linecap="round" stroke-linejoin="round"/>
  <path d="M10 17.31C10.55 17.74 11.25 18 12 18C13.79 18 15.25 16.54 15.25 14.75C15.25 14.11 15.07 13.52 14.75 13.02M22 2L2 22" stroke="black" stroke-width="1.5" stroke-linecap="round" stroke-linejoin="round"/>
</svg>