<svg width="24" height="24" viewBox="0 0 24 24" fill="none" xmlns="http://www.w3.org/2000/svg">
<path d="M12 18.75C11.59 18.75 11.25 18.41 11.25 18V15C11.25 14.59 11.59 14.25 12 14.25C12.41 14.25 12.75 14.59 12.75 15V18C12.75 18.41 12.41 18.75 12 18.75Z" fill="black"/>
<path d="M17.6 22.5599H6.39999C4.57999 22.5599 2.91999 21.1599 2.61999 19.3699L1.28999 11.3999C1.06999 10.1599 1.67999 8.56994 2.66999 7.77994L9.59999 2.22994C10.94 1.14994 13.05 1.15994 14.4 2.23994L21.33 7.77994C22.31 8.56994 22.91 10.1599 22.71 11.3999L21.38 19.3599C21.08 21.1299 19.38 22.5599 17.6 22.5599ZM11.99 2.92994C11.46 2.92994 10.93 3.08994 10.54 3.39994L3.60999 8.95994C3.04999 9.40994 2.64999 10.4499 2.76999 11.1599L4.09999 19.1199C4.27999 20.1699 5.32999 21.0599 6.39999 21.0599H17.6C18.67 21.0599 19.72 20.1699 19.9 19.1099L21.23 11.1499C21.34 10.4499 20.94 9.38994 20.39 8.94994L13.46 3.40994C13.06 3.08994 12.52 2.92994 11.99 2.92994Z" fill="black"/>
</svg>
